<svg width="49" height="54" viewBox="0 0 49 54" fill="none" xmlns="http://www.w3.org/2000/svg">
<path d="M19.0909 2.83426C22.1287 1.08042 25.8713 1.08042 28.9091 2.83426L42.4736 10.6657C45.5114 12.4196 47.3827 15.6608 47.3827 19.1685V34.8315C47.3827 38.3392 45.5114 41.5804 42.4736 43.3343L28.9091 51.1657C25.8713 52.9196 22.1287 52.9196 19.0909 51.1657L5.5264 43.3343C2.48865 41.5804 0.617313 38.3392 0.617313 34.8315V19.1685C0.617313 15.6608 2.48865 12.4196 5.5264 10.6657L19.0909 2.83426Z" fill="#1B1B1B"/>
<path d="M34.7525 23.7845V38.3663H27.5878V36.0525C26.1068 37.9241 24.0836 38.8599 21.5181 38.8599C18.9526 38.8599 16.9606 38.0269 15.5423 36.361C14.124 34.695 13.4148 32.3299 13.4148 29.2654V16.7709H20.7985V29.0494C20.7985 30.3657 21.0801 31.3529 21.6432 32.011C22.2064 32.6486 22.9886 32.9674 23.9898 32.9674C24.9701 32.9674 25.7731 32.6178 26.3989 31.9185C27.0455 31.1987 27.3688 30.16 27.3688 28.8026V23.7845H34.7525Z" fill="white"/>
<path d="M27.3499 16.7709H34.7279V22.2867H27.3499L27.3499 16.7709Z" fill="#CCFF00"/>
</svg>
